<?xml version="1.0" encoding="utf-8"?>
<!-- Generator: Adobe Illustrator 23.0.3, SVG Export Plug-In . SVG Version: 6.00 Build 0)  -->
<svg version="1.1" id="组_1" xmlns="http://www.w3.org/2000/svg" xmlns:xlink="http://www.w3.org/1999/xlink" x="0px" y="0px"
	 viewBox="0 0 271.7 241.1" style="enable-background:new 0 0 271.7 241.1;" xml:space="preserve">
<style type="text/css">
	.st0{fill:#34495E;}
	.st1{fill:#3B9DD4;}
</style>
<title>VS-01</title>
<path class="st0" d="M0.6,28H44l19.5,84.3c5,19.9,8.3,39,13.3,59.2H78c4.8-20.1,8.5-39.3,13.3-59.2L110.6,28h41.8L101,213H51.8
	L0.6,28z"/>
<path class="st1" d="M142,187.4l23.2-29.5c12.2,10.8,28,18.2,41.6,18.2c15.1,0,22.3-6,22.3-15.6c0-10.3-9.4-13.7-24.1-20.1
	l-21.8-9.6c-17.9-7.4-34.7-23-34.7-48.9c0-30,25.7-53.9,62-53.9c19.8,0,40.6,7.9,55.6,23.5l-20.4,26.8
	c-11.2-8.9-21.8-13.7-35.1-13.7c-12.6,0-20.4,5.3-20.4,14.9c0,9.8,10.8,13.7,25.9,19.9l21.3,8.8c21.1,8.9,33.8,23.7,33.8,48.9
	c0,29.7-23.9,55.8-65.2,55.8C183.6,213,159.7,204.4,142,187.4z"/>
</svg>
