<?xml version="1.0" encoding="utf-8"?>
<!-- Generator: Adobe Illustrator 26.2.1, SVG Export Plug-In . SVG Version: 6.00 Build 0)  -->
<svg version="1.1"
	 id="svg2" inkscape:version="0.48.4 r9939" sodipodi:docname="涓濂у.svg" xmlns:cc="http://creativecommons.org/ns#" xmlns:dc="http://purl.org/dc/elements/1.1/" xmlns:inkscape="http://www.inkscape.org/namespaces/inkscape" xmlns:rdf="http://www.w3.org/1999/02/22-rdf-syntax-ns#" xmlns:sodipodi="http://sodipodi.sourceforge.net/DTD/sodipodi-0.dtd" xmlns:svg="http://www.w3.org/2000/svg"
	 xmlns="http://www.w3.org/2000/svg" xmlns:xlink="http://www.w3.org/1999/xlink" x="0px" y="0px" viewBox="0 0 640 480"
	 style="enable-background:new 0 0 640 480;" xml:space="preserve">
<style type="text/css">
	.st0{fill:#FFFFFF;}
	.st1{fill:#29166F;}
	.st2{fill:#DA251D;}
	.st3{fill:#0077BD;}
	.st4{fill:#F1A737;}
	.st5{fill:#009240;}
</style>
<sodipodi:namedview  bordercolor="#666666" borderopacity="1" fit-margin-bottom="0" fit-margin-left="0" fit-margin-right="0" fit-margin-top="0" gridtolerance="10" guidetolerance="10" id="namedview39" inkscape:current-layer="svg2" inkscape:cx="404.82558" inkscape:cy="339.98977" inkscape:pageopacity="0" inkscape:pageshadow="2" inkscape:window-height="1028" inkscape:window-maximized="1" inkscape:window-width="1920" inkscape:window-x="-8" inkscape:window-y="-8" inkscape:zoom="1" objecttolerance="10" pagecolor="#ffffff" showgrid="false">
	</sodipodi:namedview>
<g id="g3813" transform="matrix(3.3855264,0,0,3.3855264,3521.032,0)">
	<rect id="_x37_4923296" x="-1040" y="0.3" class="st0" width="189" height="141.7"/>
	<g id="g10">
		
			<ellipse id="_x37_4923384" sodipodi:cx="0" sodipodi:cy="631" sodipodi:rx="433" sodipodi:ry="433" class="st1" cx="-945.6" cy="45.7" rx="31.2" ry="31.2">
		</ellipse>
		<path id="_x37_4923472" inkscape:connector-curvature="0" class="st1" d="M-1002,55.5c5.3-16.3,23-25.3,39.3-20
			c16.3,5.3,25.3,23,20,39.3c-5.3,16.3-23,25.3-39.3,20C-998.3,89.5-1007.3,71.8-1002,55.5z"/>
		<path id="_x37_4923560" inkscape:connector-curvature="0" class="st1" d="M-980.5,121.8c-13.9-10.1-17-29.7-6.8-43.5
			c10.1-13.9,29.7-17,43.5-6.9c13.9,10.1,17,29.7,6.9,43.5C-947,128.8-966.6,131.9-980.5,121.8z"/>
		<path id="_x37_4923648" inkscape:connector-curvature="0" class="st1" d="M-910.7,121.8c-13.9,10.1-33.5,7-43.5-6.9
			c-10.1-13.9-7-33.4,6.9-43.5c13.8-10.1,33.4-7,43.5,6.9C-893.7,92.2-896.8,111.8-910.7,121.8z"/>
		<path id="_x37_4923736" inkscape:connector-curvature="0" class="st1" d="M-889.2,55.5c5.3,16.3-3.7,34-20,39.3
			c-16.3,5.3-34-3.7-39.3-20c-5.3-16.3,3.7-34,20-39.3C-912.1,30.2-894.5,39.2-889.2,55.5z"/>
	</g>
	<g id="g17">
		
			<ellipse id="_x37_4923912" sodipodi:cx="0" sodipodi:cy="631" sodipodi:rx="366" sodipodi:ry="366" class="st0" cx="-945.6" cy="45.7" rx="26.3" ry="26.3">
		</ellipse>
		<path id="_x37_4924000" inkscape:connector-curvature="0" class="st0" d="M-997.4,57c4.5-13.8,19.4-21.4,33.2-16.9
			c13.8,4.5,21.4,19.4,16.9,33.2c-4.5,13.8-19.4,21.4-33.2,16.9C-994.3,85.7-1001.9,70.8-997.4,57z"/>
		<path id="_x37_4924088" inkscape:connector-curvature="0" class="st0" d="M-977.6,118c-11.7-8.5-14.4-25-5.8-36.8
			c8.5-11.8,25-14.4,36.8-5.8c11.7,8.5,14.4,25,5.8,36.8C-949.3,123.9-965.9,126.5-977.6,118z"/>
		<path id="_x37_4924176" inkscape:connector-curvature="0" class="st0" d="M-913.6,118c-11.7,8.6-28.3,5.9-36.8-5.8
			c-8.6-11.7-5.9-28.3,5.8-36.8c11.7-8.6,28.3-6,36.8,5.8C-899.2,92.9-901.8,109.5-913.6,118z"/>
		<path id="_x37_4924264" inkscape:connector-curvature="0" class="st0" d="M-893.8,57c4.5,13.8-3.1,28.7-16.9,33.2
			c-13.7,4.5-28.7-3.1-33.2-16.9c-4.5-13.7,3.1-28.7,16.9-33.2S-898.2,43.2-893.8,57z"/>
	</g>
	<path id="_x37_4924440" inkscape:connector-curvature="0" class="st2" d="M-895.8,57.6c3.7,11.3-1.6,23.4-11.9,28.5
		c5.3,10.2,2.4,23.1-7.1,30.1s-22.7,5.7-30.8-2.5c-8.1,8.2-21.2,9.5-30.8,2.5s-12.4-19.9-7.1-30.1c-10.3-5.1-15.5-17.2-11.9-28.5
		c3.7-11.2,15-17.9,26.4-16c1.7-11.4,11.5-20.2,23.4-20.2c11.9,0,21.7,8.8,23.4,20.2C-910.8,39.7-899.5,46.4-895.8,57.6z"/>
	<path id="_x37_4924528" inkscape:connector-curvature="0" class="st0" d="M-898.8,58.7c3.5,10.7-2.4,22.3-13.2,25.8
		c-0.1,0.1-0.3,0.1-0.4,0.1c0.1,0.1,0.1,0.3,0.3,0.4c6.6,9.1,4.5,22-4.5,28.6c-9.1,6.6-22,4.6-28.6-4.5c-0.1-0.1-0.2-0.3-0.3-0.4
		c-0.1,0.1-0.2,0.3-0.3,0.4c-6.6,9.1-19.5,11.2-28.6,4.5c-9.1-6.6-11.2-19.5-4.5-28.6c0.1-0.1,0.2-0.2,0.3-0.4
		c-0.1-0.1-0.3-0.1-0.4-0.1c-10.7-3.5-16.6-15.1-13.2-25.8c3.5-10.7,15.1-16.6,25.8-13.2c0.1,0.1,0.3,0.1,0.4,0.2c0-0.2,0-0.4,0-0.5
		c0-11.3,9.2-20.5,20.5-20.5c11.3,0,20.5,9.2,20.5,20.5c0,0.1,0,0.3,0,0.4c0.1,0,0.3-0.1,0.4-0.1C-913.9,42-902.3,47.9-898.8,58.7z"
		/>
	
		<ellipse id="_x37_4924616" sodipodi:cx="0" sodipodi:cy="787" sodipodi:rx="231" sodipodi:ry="231" class="st1" cx="-945.6" cy="56.9" rx="16.6" ry="16.6">
	</ellipse>
	<g id="g27">
		
			<ellipse id="_x37_4924704" sodipodi:cx="0" sodipodi:cy="787" sodipodi:rx="103" sodipodi:ry="103" class="st0" cx="-945.6" cy="56.9" rx="7.4" ry="7.4">
		</ellipse>
		<path id="_x37_4924792" inkscape:connector-curvature="0" class="st0" d="M-945.6,42.1l1.7,6.6c-0.5-0.1-1.2-0.2-1.7-0.2
			c-0.6,0-1.2,0.1-1.7,0.2L-945.6,42.1z M-943,48.9l4.8-4.9l-1.8,6.6C-940.8,49.9-941.9,49.3-943,48.9z M-939.3,51.3l6.6-1.8
			l-4.9,4.8C-938,53.2-938.5,52.2-939.3,51.3z M-937.3,55.2l6.6,1.7l-6.6,1.8c0.1-0.6,0.1-1.2,0.1-1.8
			C-937.2,56.4-937.2,55.8-937.3,55.2z M-937.6,59.5l4.9,4.9l-6.6-1.8C-938.5,61.7-938,60.7-937.6,59.5z M-940,63.2l1.8,6.6L-943,65
			C-941.9,64.6-940.8,64-940,63.2z M-943.9,65.2l-1.7,6.6l-1.7-6.6c0.5,0.1,1.2,0.1,1.7,0.1C-945,65.3-944.4,65.3-943.9,65.2z
			 M-948.2,65l-4.8,4.8l1.8-6.6C-950.3,64-949.3,64.6-948.2,65z M-951.9,62.6l-6.6,1.8l4.9-4.9C-953.2,60.7-952.6,61.7-951.9,62.6z
			 M-953.9,58.7l-6.6-1.8l6.6-1.7c-0.1,0.6-0.1,1.2-0.1,1.7C-954,57.6-953.9,58.1-953.9,58.7z M-953.6,54.3l-4.9-4.8l6.6,1.8
			C-952.6,52.2-953.2,53.2-953.6,54.3z M-951.2,50.7L-953,44l4.8,4.9C-949.3,49.3-950.3,49.9-951.2,50.7z"/>
	</g>
	<path id="_x37_4922944" inkscape:connector-curvature="0" class="st3" d="M-967.5,77.7c5.5,0,10.1,4.5,10.1,10
		c0,5.5-4.5,10.1-10.1,10.1c-5.5,0-10.1-4.5-10.1-10.1C-977.6,82.3-973.1,77.7-967.5,77.7z"/>
	<path id="_x37_4922856" inkscape:connector-curvature="0" class="st0" d="M-967.5,79.8c4.4,0,7.9,3.6,7.9,7.9c0,4.4-3.5,8-7.9,8
		c-4.4,0-7.9-3.6-7.9-8C-975.5,83.4-971.9,79.8-967.5,79.8z"/>
	<path id="_x37_4922416" inkscape:connector-curvature="0" d="M-945.6,77.7c5.5,0,10.1,4.5,10.1,10c0,5.5-4.5,10.1-10.1,10.1
		c-5.5,0-10.1-4.5-10.1-10.1C-955.7,82.3-951.1,77.7-945.6,77.7z"/>
	<path id="_x37_4922328" inkscape:connector-curvature="0" class="st0" d="M-945.6,79.8c4.4,0,7.9,3.6,7.9,7.9c0,4.4-3.5,8-7.9,8
		c-4.4,0-7.9-3.6-7.9-8C-953.5,83.4-950,79.8-945.6,79.8z"/>
	<path id="_x37_4921888" inkscape:connector-curvature="0" class="st2" d="M-923.6,77.7c5.5,0,10.1,4.5,10.1,10
		c0,5.5-4.5,10.1-10.1,10.1c-5.5,0-10.1-4.5-10.1-10.1C-933.7,82.3-929.1,77.7-923.6,77.7z"/>
	<path id="_x37_4921800" inkscape:connector-curvature="0" class="st0" d="M-923.6,79.8c4.3,0,7.9,3.6,7.9,7.9c0,4.4-3.6,8-7.9,8
		c-4.4,0-7.9-3.6-7.9-8C-931.5,83.4-928,79.8-923.6,79.8z"/>
	<path id="_x37_4925232" inkscape:connector-curvature="0" class="st4" d="M-956.6,86.8c5.1,0,9.4,3.9,10,8.9
		c-0.9-0.1-1.6-0.4-2.3-0.6c-0.9-3.5-4-6.1-7.7-6.1c-0.4,0-0.6,0-0.9,0.1c0-0.4,0.1-0.8,0.1-1.2c0-0.3-0.1-0.6-0.1-0.9
		C-957.3,86.8-956.9,86.8-956.6,86.8z M-946.6,97.8c-0.5,5-4.8,9.1-10,9.1c-5.5,0-10.1-4.5-10.1-10.1c0-4.5,3-8.3,7.1-9.6
		c0,0.2,0,0.4,0,0.5c0,0.6-0.1,1.3-0.2,1.9c-2.7,1.2-4.7,4-4.7,7.2c0,4.4,3.5,8,7.9,8c4.2,0,7.6-3.3,7.9-7.5
		C-948,97.5-947.3,97.7-946.6,97.8z"/>
	<path id="_x37_4925320" inkscape:connector-curvature="0" class="st5" d="M-934.6,86.8c5.2,0,9.4,3.9,10,8.9
		c-0.8-0.1-1.6-0.4-2.3-0.6c-0.8-3.5-4-6.1-7.7-6.1c-0.4,0-0.6,0.1-1,0.1c0-0.4,0.1-0.8,0.1-1.2c0-0.3,0-0.6-0.1-0.9
		C-935.2,86.8-934.9,86.8-934.6,86.8z M-924.6,97.8c-0.4,5-4.7,9.1-10,9.1c-5.5,0-10.1-4.5-10.1-10.1c0-4.4,3-8.2,7-9.5
		c0,0.1,0,0.3,0,0.4c0,0.6-0.1,1.3-0.2,1.9c-2.7,1.3-4.6,4-4.6,7.2c0,4.4,3.5,8,7.9,8c4.2,0,7.6-3.3,7.9-7.4
		C-925.9,97.6-925.3,97.7-924.6,97.8z"/>
</g>
</svg>
